<?xml version="1.0"?>
<svg xmlns="http://www.w3.org/2000/svg" xmlns:xlink="http://www.w3.org/1999/xlink" xmlns:svgjs="http://svgjs.com/svgjs" version="1.1" width="512" height="512" x="0" y="0" viewBox="0 0 512 512" style="enable-background:new 0 0 512 512" xml:space="preserve" class=""><g><g xmlns="http://www.w3.org/2000/svg"><path d="m500.25 135.201-44.457-17.729h-12.955v148.347l57.412-22.895c5.702-2.274 9.443-7.794 9.443-13.933v-79.857c0-6.139-3.741-11.659-9.443-13.933z" fill="#ffffff" data-original="#000000" style="" class=""/><path d="m140.924 300.654v23.933c0 8.284 6.716 15 15 15h48.277v61.156h-110.584v-39.093c0-8.284-6.716-15-15-15h-63.617c-8.284 0-15 6.716-15 15v108.185c0 8.284 6.716 15 15 15h63.617c8.284 0 15-6.716 15-15v-39.092h125.583c8.284 0 15-6.716 15-15v-76.156h48.277c8.284 0 15-6.716 15-15v-23.933z" fill="#ffffff" data-original="#000000" style="" class=""/><path d="m412.838 270.652v-153.18h-370.548v138.18c0 8.284 6.716 15 15 15z" fill="#ffffff" data-original="#000000" style="" class=""/><path d="m477.778 87.472 30.589-35.518c3.826-4.443 4.713-10.71 2.269-16.041s-7.771-8.748-13.635-8.748h-439.711c-8.284 0-15 6.716-15 15v45.307z" fill="#ffffff" data-original="#000000" style="" class=""/></g></g></svg>
